<svg width="723" height="219" viewBox="0 0 723 219" fill="none" xmlns="http://www.w3.org/2000/svg">
<path d="M164 0C194.376 0 219 24.6243 219 55V164C219 194.376 194.376 219 164 219H55C24.6243 219 0 194.376 0 164V55C0 24.6243 24.6243 0 55 0H164ZM109.106 19.6943C59.7256 19.6943 19.6943 59.7256 19.6943 109.106C19.6945 158.487 59.7257 198.518 109.106 198.518C158.487 198.517 198.517 158.487 198.518 109.106C198.518 59.7257 158.487 19.6945 109.106 19.6943Z" fill="url(#paint0_linear_260_14)"/>
<g filter="url(#filter0_f_260_14)">
<path d="M325.429 163.807C317.298 163.807 310.297 161.887 304.425 158.048C298.553 154.208 294.036 148.919 290.874 142.181C287.712 135.444 286.131 127.746 286.131 119.088C286.131 110.28 287.749 102.507 290.987 95.7688C294.261 88.9933 298.816 83.7045 304.651 79.9027C310.523 76.0632 317.374 74.1435 325.203 74.1435C331.301 74.1435 336.797 75.2727 341.69 77.5312C346.584 79.7898 350.593 82.9517 353.717 87.017C356.841 91.0824 358.78 95.8253 359.533 101.246H346.207C345.191 97.2933 342.933 93.7926 339.432 90.7436C335.969 87.657 331.301 86.1136 325.429 86.1136C320.234 86.1136 315.68 87.4687 311.765 90.179C307.888 92.8516 304.858 96.6346 302.674 101.528C300.529 106.384 299.456 112.087 299.456 118.636C299.456 125.337 300.51 131.171 302.618 136.14C304.763 141.109 307.775 144.967 311.652 147.715C315.567 150.463 320.159 151.837 325.429 151.837C328.892 151.837 332.035 151.234 334.858 150.03C337.681 148.825 340.072 147.094 342.029 144.835C343.987 142.577 345.379 139.866 346.207 136.705H359.533C358.78 141.824 356.917 146.435 353.943 150.538C351.007 154.603 347.111 157.841 342.255 160.25C337.437 162.621 331.828 163.807 325.429 163.807ZM404.534 164.033C399.038 164.033 394.05 162.998 389.571 160.927C385.092 158.819 381.534 155.789 378.9 151.837C376.265 147.847 374.947 143.028 374.947 137.382C374.947 132.413 375.926 128.386 377.883 125.299C379.841 122.175 382.457 119.728 385.732 117.959C389.006 116.19 392.62 114.872 396.572 114.006C400.563 113.103 404.571 112.388 408.599 111.861C413.869 111.183 418.141 110.675 421.416 110.336C424.729 109.96 427.138 109.339 428.643 108.473C430.187 107.607 430.958 106.102 430.958 103.956V103.504C430.958 97.9332 429.434 93.6044 426.385 90.5178C423.374 87.4311 418.8 85.8878 412.664 85.8878C406.303 85.8878 401.315 87.2805 397.702 90.066C394.088 92.8516 391.547 95.8253 390.079 98.9872L377.431 94.4702C379.69 89.2003 382.701 85.0973 386.466 82.1612C390.267 79.1875 394.408 77.1172 398.887 75.9503C403.404 74.7457 407.846 74.1435 412.213 74.1435C414.998 74.1435 418.198 74.4822 421.811 75.1598C425.463 75.7997 428.982 77.136 432.37 79.1687C435.795 81.2013 438.637 84.2692 440.896 88.3722C443.154 92.4751 444.284 97.9709 444.284 104.859V162H430.958V150.256H430.281C429.377 152.138 427.872 154.152 425.764 156.297C423.656 158.443 420.852 160.268 417.351 161.774C413.85 163.28 409.578 164.033 404.534 164.033ZM406.566 152.062C411.836 152.062 416.278 151.027 419.892 148.957C423.543 146.887 426.291 144.214 428.135 140.939C430.017 137.664 430.958 134.22 430.958 130.607V118.411C430.394 119.088 429.152 119.709 427.232 120.274C425.35 120.801 423.167 121.271 420.682 121.685C418.235 122.062 415.845 122.401 413.511 122.702C411.215 122.965 409.352 123.191 407.922 123.379C404.458 123.831 401.221 124.565 398.21 125.581C395.236 126.56 392.827 128.047 390.983 130.042C389.176 131.999 388.272 134.672 388.272 138.06C388.272 142.69 389.985 146.19 393.411 148.562C396.874 150.896 401.259 152.062 406.566 152.062ZM481.93 46.3636V162H468.605V46.3636H481.93ZM519.662 46.3636V162H506.337V46.3636H519.662ZM605.5 94.696L593.53 98.0838C592.777 96.0888 591.666 94.1502 590.198 92.2681C588.768 90.3484 586.811 88.7674 584.326 87.5252C581.842 86.283 578.661 85.6619 574.784 85.6619C569.476 85.6619 565.054 86.8853 561.515 89.332C558.014 91.7411 556.264 94.8089 556.264 98.5355C556.264 101.848 557.469 104.464 559.878 106.384C562.287 108.304 566.051 109.903 571.17 111.183L584.044 114.345C591.798 116.227 597.576 119.107 601.378 122.984C605.18 126.824 607.081 131.773 607.081 137.834C607.081 142.803 605.65 147.244 602.79 151.159C599.967 155.074 596.014 158.161 590.932 160.419C585.851 162.678 579.941 163.807 573.203 163.807C564.357 163.807 557.036 161.887 551.239 158.048C545.442 154.208 541.772 148.599 540.229 141.222L552.876 138.06C554.081 142.727 556.358 146.228 559.708 148.562C563.096 150.896 567.519 152.062 572.977 152.062C579.188 152.062 584.119 150.745 587.771 148.11C591.459 145.437 593.304 142.238 593.304 138.511C593.304 135.5 592.25 132.978 590.142 130.945C588.034 128.875 584.797 127.332 580.43 126.315L565.976 122.928C558.033 121.045 552.199 118.128 548.472 114.176C544.783 110.186 542.939 105.198 542.939 99.2131C542.939 94.3196 544.313 89.9908 547.061 86.2266C549.846 82.4624 553.629 79.5075 558.41 77.3619C563.228 75.2163 568.686 74.1435 574.784 74.1435C583.366 74.1435 590.104 76.0256 594.998 79.7898C599.929 83.554 603.43 88.5227 605.5 94.696ZM635.722 194.523C633.463 194.523 631.449 194.335 629.68 193.958C627.911 193.619 626.688 193.281 626.01 192.942L629.398 181.197C632.635 182.026 635.496 182.327 637.98 182.101C640.465 181.875 642.667 180.765 644.586 178.77C646.544 176.812 648.332 173.631 649.95 169.227L652.435 162.452L620.364 75.2727H634.818L658.759 144.384H659.662L683.602 75.2727H698.057L661.243 174.648C659.587 179.127 657.535 182.835 655.089 185.771C652.642 188.745 649.8 190.947 646.563 192.377C643.363 193.808 639.749 194.523 635.722 194.523Z" fill="url(#paint1_linear_260_14)" fill-opacity="0.19"/>
</g>
<g filter="url(#filter1_f_260_14)">
<mask id="path-3-outside-1_260_14" maskUnits="userSpaceOnUse" x="285" y="45" width="415" height="151" fill="black">
<rect fill="white" x="285" y="45" width="415" height="151"/>
<path d="M325.429 163.807C317.298 163.807 310.297 161.887 304.425 158.048C298.553 154.208 294.036 148.919 290.874 142.181C287.712 135.444 286.131 127.746 286.131 119.088C286.131 110.28 287.749 102.507 290.987 95.7688C294.261 88.9933 298.816 83.7045 304.651 79.9027C310.523 76.0632 317.374 74.1435 325.203 74.1435C331.301 74.1435 336.797 75.2727 341.69 77.5312C346.584 79.7898 350.593 82.9517 353.717 87.017C356.841 91.0824 358.78 95.8253 359.533 101.246H346.207C345.191 97.2933 342.933 93.7926 339.432 90.7436C335.969 87.657 331.301 86.1136 325.429 86.1136C320.234 86.1136 315.68 87.4687 311.765 90.179C307.888 92.8516 304.858 96.6346 302.674 101.528C300.529 106.384 299.456 112.087 299.456 118.636C299.456 125.337 300.51 131.171 302.618 136.14C304.763 141.109 307.775 144.967 311.652 147.715C315.567 150.463 320.159 151.837 325.429 151.837C328.892 151.837 332.035 151.234 334.858 150.03C337.681 148.825 340.072 147.094 342.029 144.835C343.987 142.577 345.379 139.866 346.207 136.705H359.533C358.78 141.824 356.917 146.435 353.943 150.538C351.007 154.603 347.111 157.841 342.255 160.25C337.437 162.621 331.828 163.807 325.429 163.807ZM404.534 164.033C399.038 164.033 394.05 162.998 389.571 160.927C385.092 158.819 381.534 155.789 378.9 151.837C376.265 147.847 374.947 143.028 374.947 137.382C374.947 132.413 375.926 128.386 377.883 125.299C379.841 122.175 382.457 119.728 385.732 117.959C389.006 116.19 392.62 114.872 396.572 114.006C400.563 113.103 404.571 112.388 408.599 111.861C413.869 111.183 418.141 110.675 421.416 110.336C424.729 109.96 427.138 109.339 428.643 108.473C430.187 107.607 430.958 106.102 430.958 103.956V103.504C430.958 97.9332 429.434 93.6044 426.385 90.5178C423.374 87.4311 418.8 85.8878 412.664 85.8878C406.303 85.8878 401.315 87.2805 397.702 90.066C394.088 92.8516 391.547 95.8253 390.079 98.9872L377.431 94.4702C379.69 89.2003 382.701 85.0973 386.466 82.1612C390.267 79.1875 394.408 77.1172 398.887 75.9503C403.404 74.7457 407.846 74.1435 412.213 74.1435C414.998 74.1435 418.198 74.4822 421.811 75.1598C425.463 75.7997 428.982 77.136 432.37 79.1687C435.795 81.2013 438.637 84.2692 440.896 88.3722C443.154 92.4751 444.284 97.9709 444.284 104.859V162H430.958V150.256H430.281C429.377 152.138 427.872 154.152 425.764 156.297C423.656 158.443 420.852 160.268 417.351 161.774C413.85 163.28 409.578 164.033 404.534 164.033ZM406.566 152.062C411.836 152.062 416.278 151.027 419.892 148.957C423.543 146.887 426.291 144.214 428.135 140.939C430.017 137.664 430.958 134.22 430.958 130.607V118.411C430.394 119.088 429.152 119.709 427.232 120.274C425.35 120.801 423.167 121.271 420.682 121.685C418.235 122.062 415.845 122.401 413.511 122.702C411.215 122.965 409.352 123.191 407.922 123.379C404.458 123.831 401.221 124.565 398.21 125.581C395.236 126.56 392.827 128.047 390.983 130.042C389.176 131.999 388.272 134.672 388.272 138.06C388.272 142.69 389.985 146.19 393.411 148.562C396.874 150.896 401.259 152.062 406.566 152.062ZM481.93 46.3636V162H468.605V46.3636H481.93ZM519.662 46.3636V162H506.337V46.3636H519.662ZM605.5 94.696L593.53 98.0838C592.777 96.0888 591.666 94.1502 590.198 92.2681C588.768 90.3484 586.811 88.7674 584.326 87.5252C581.842 86.283 578.661 85.6619 574.784 85.6619C569.476 85.6619 565.054 86.8853 561.515 89.332C558.014 91.7411 556.264 94.8089 556.264 98.5355C556.264 101.848 557.469 104.464 559.878 106.384C562.287 108.304 566.051 109.903 571.17 111.183L584.044 114.345C591.798 116.227 597.576 119.107 601.378 122.984C605.18 126.824 607.081 131.773 607.081 137.834C607.081 142.803 605.65 147.244 602.79 151.159C599.967 155.074 596.014 158.161 590.932 160.419C585.851 162.678 579.941 163.807 573.203 163.807C564.357 163.807 557.036 161.887 551.239 158.048C545.442 154.208 541.772 148.599 540.229 141.222L552.876 138.06C554.081 142.727 556.358 146.228 559.708 148.562C563.096 150.896 567.519 152.062 572.977 152.062C579.188 152.062 584.119 150.745 587.771 148.11C591.459 145.437 593.304 142.238 593.304 138.511C593.304 135.5 592.25 132.978 590.142 130.945C588.034 128.875 584.797 127.332 580.43 126.315L565.976 122.928C558.033 121.045 552.199 118.128 548.472 114.176C544.783 110.186 542.939 105.198 542.939 99.2131C542.939 94.3196 544.313 89.9908 547.061 86.2266C549.846 82.4624 553.629 79.5075 558.41 77.3619C563.228 75.2163 568.686 74.1435 574.784 74.1435C583.366 74.1435 590.104 76.0256 594.998 79.7898C599.929 83.554 603.43 88.5227 605.5 94.696ZM635.722 194.523C633.463 194.523 631.449 194.335 629.68 193.958C627.911 193.619 626.688 193.281 626.01 192.942L629.398 181.197C632.635 182.026 635.496 182.327 637.98 182.101C640.465 181.875 642.667 180.765 644.586 178.77C646.544 176.812 648.332 173.631 649.95 169.227L652.435 162.452L620.364 75.2727H634.818L658.759 144.384H659.662L683.602 75.2727H698.057L661.243 174.648C659.587 179.127 657.535 182.835 655.089 185.771C652.642 188.745 649.8 190.947 646.563 192.377C643.363 193.808 639.749 194.523 635.722 194.523Z"/>
</mask>
<path d="M304.425 158.048L303.877 158.885L303.877 158.885L304.425 158.048ZM290.987 95.7688L290.086 95.3336L290.085 95.3358L290.987 95.7688ZM304.651 79.9027L305.197 80.7405L305.198 80.7397L304.651 79.9027ZM353.717 87.017L354.51 86.4077L354.51 86.4077L353.717 87.017ZM359.533 101.246V102.246H360.681L360.523 101.108L359.533 101.246ZM346.207 101.246L345.239 101.495L345.432 102.246H346.207V101.246ZM339.432 90.7436L338.766 91.4902L338.775 91.4977L339.432 90.7436ZM311.765 90.179L312.332 91.0023L312.334 91.0012L311.765 90.179ZM302.674 101.528L301.761 101.121L301.76 101.124L302.674 101.528ZM302.618 136.14L301.697 136.53L301.7 136.536L302.618 136.14ZM311.652 147.715L311.074 148.531L311.077 148.533L311.652 147.715ZM334.858 150.03L334.466 149.11L334.466 149.11L334.858 150.03ZM342.029 144.835L342.785 145.49L342.785 145.49L342.029 144.835ZM346.207 136.705V135.705H345.436L345.24 136.451L346.207 136.705ZM359.533 136.705L360.522 136.85L360.69 135.705H359.533V136.705ZM353.943 150.538L353.133 149.951L353.132 149.953L353.943 150.538ZM342.255 160.25L342.697 161.147L342.699 161.145L342.255 160.25ZM325.429 163.807V162.807C317.461 162.807 310.657 160.928 304.972 157.211L304.425 158.048L303.877 158.885C309.937 162.846 317.136 164.807 325.429 164.807V163.807ZM304.425 158.048L304.972 157.211C299.265 153.479 294.867 148.337 291.779 141.757L290.874 142.181L289.968 142.606C293.204 149.501 297.84 154.937 303.877 158.885L304.425 158.048ZM290.874 142.181L291.779 141.757C288.689 135.172 287.131 127.623 287.131 119.088H286.131H285.131C285.131 127.869 286.735 135.715 289.968 142.606L290.874 142.181ZM286.131 119.088H287.131C287.131 110.403 288.726 102.783 291.888 96.2019L290.987 95.7688L290.085 95.3358C286.772 102.231 285.131 110.156 285.131 119.088H286.131ZM290.987 95.7688L291.887 96.204C295.089 89.5787 299.527 84.4349 305.197 80.7405L304.651 79.9027L304.105 79.0649C298.105 82.9742 293.434 88.4078 290.086 95.3336L290.987 95.7688ZM304.651 79.9027L305.198 80.7397C310.889 77.0186 317.545 75.1435 325.203 75.1435V74.1435V73.1435C317.203 73.1435 310.157 75.1078 304.103 79.0657L304.651 79.9027ZM325.203 74.1435V75.1435C331.175 75.1435 336.525 76.2488 341.271 78.4392L341.69 77.5312L342.109 76.6233C337.068 74.2966 331.427 73.1435 325.203 73.1435V74.1435ZM341.69 77.5312L341.271 78.4392C346.026 80.6335 349.903 83.696 352.924 87.6264L353.717 87.017L354.51 86.4077C351.282 82.2074 347.142 78.9461 342.109 76.6233L341.69 77.5312ZM353.717 87.017L352.924 87.6264C355.936 91.545 357.812 96.1226 358.542 101.383L359.533 101.246L360.523 101.108C359.748 95.5279 357.747 90.6198 354.51 86.4077L353.717 87.017ZM359.533 101.246V100.246H346.207V101.246V102.246H359.533V101.246ZM346.207 101.246L347.176 100.997C346.102 96.8221 343.72 93.1525 340.089 89.9895L339.432 90.7436L338.775 91.4977C342.145 94.4327 344.28 97.7645 345.239 101.495L346.207 101.246ZM339.432 90.7436L340.097 89.9971C336.406 86.7073 331.479 85.1136 325.429 85.1136V86.1136V87.1136C331.123 87.1136 335.531 88.6066 338.766 91.4901L339.432 90.7436ZM325.429 86.1136V85.1136C320.05 85.1136 315.293 86.5202 311.196 89.3568L311.765 90.179L312.334 91.0012C316.066 88.4173 320.418 87.1136 325.429 87.1136V86.1136ZM311.765 90.179L311.197 89.3556C307.149 92.1462 304.009 96.083 301.761 101.121L302.674 101.528L303.588 101.935C305.707 97.1861 308.627 93.5569 312.332 91.0023L311.765 90.179ZM302.674 101.528L301.76 101.124C299.546 106.133 298.456 111.979 298.456 118.636H299.456H300.456C300.456 112.194 301.511 106.635 303.589 101.932L302.674 101.528ZM299.456 118.636H298.456C298.456 125.439 299.526 131.412 301.697 136.53L302.618 136.14L303.538 135.749C301.494 130.93 300.456 125.234 300.456 118.636H299.456ZM302.618 136.14L301.7 136.536C303.908 141.65 307.027 145.663 311.074 148.531L311.652 147.715L312.23 146.899C308.523 144.271 305.619 140.568 303.536 135.743L302.618 136.14ZM311.652 147.715L311.077 148.533C315.178 151.411 319.975 152.837 325.429 152.837V151.837V150.837C320.343 150.837 315.956 149.514 312.227 146.896L311.652 147.715ZM325.429 151.837V152.837C329.01 152.837 332.289 152.213 335.251 150.95L334.858 150.03L334.466 149.11C331.782 150.255 328.774 150.837 325.429 150.837V151.837ZM334.858 150.03L335.251 150.95C338.21 149.687 340.725 147.867 342.785 145.49L342.029 144.835L341.273 144.18C339.418 146.321 337.153 147.963 334.466 149.11L334.858 150.03ZM342.029 144.835L342.785 145.49C344.852 143.105 346.311 140.254 347.175 136.958L346.207 136.705L345.24 136.451C344.447 139.479 343.121 142.048 341.273 144.18L342.029 144.835ZM346.207 136.705V137.705H359.533V136.705V135.705H346.207V136.705ZM359.533 136.705L358.543 136.559C357.813 141.522 356.01 145.981 353.133 149.951L353.943 150.538L354.753 151.125C357.823 146.889 359.746 142.125 360.522 136.85L359.533 136.705ZM353.943 150.538L353.132 149.953C350.299 153.876 346.533 157.011 341.811 159.354L342.255 160.25L342.699 161.145C347.689 158.67 351.715 155.331 354.754 151.123L353.943 150.538ZM342.255 160.25L341.813 159.352C337.156 161.644 331.704 162.807 325.429 162.807V163.807V164.807C331.952 164.807 337.717 163.598 342.697 161.147L342.255 160.25ZM389.571 160.927L389.145 161.832L389.151 161.835L389.571 160.927ZM378.9 151.837L378.065 152.388L378.067 152.391L378.9 151.837ZM377.883 125.299L378.728 125.835L378.731 125.83L377.883 125.299ZM396.572 114.006L396.786 114.983L396.793 114.982L396.572 114.006ZM408.599 111.861L408.472 110.869L408.469 110.869L408.599 111.861ZM421.416 110.336L421.519 111.331L421.529 111.33L421.416 110.336ZM428.643 108.473L428.154 107.601L428.145 107.606L428.643 108.473ZM426.385 90.5178L425.669 91.2161L425.674 91.2205L426.385 90.5178ZM397.702 90.066L398.312 90.8581L398.312 90.8581L397.702 90.066ZM390.079 98.9872L389.743 99.929L390.602 100.236L390.986 99.4083L390.079 98.9872ZM377.431 94.4702L376.512 94.0762L376.093 95.0541L377.095 95.4119L377.431 94.4702ZM386.466 82.1612L387.081 82.9497L387.082 82.9489L386.466 82.1612ZM398.887 75.9503L399.14 76.918L399.145 76.9165L398.887 75.9503ZM421.811 75.1598L421.627 76.1427L421.639 76.1448L421.811 75.1598ZM432.37 79.1687L431.856 80.0262L431.86 80.0287L432.37 79.1687ZM440.896 88.3722L440.02 88.8544L440.02 88.8544L440.896 88.3722ZM444.284 162V163H445.284V162H444.284ZM430.958 162H429.958V163H430.958V162ZM430.958 150.256H431.958V149.256H430.958V150.256ZM430.281 150.256V149.256H429.652L429.379 149.823L430.281 150.256ZM425.764 156.297L426.477 156.998L426.477 156.998L425.764 156.297ZM417.351 161.774L416.956 160.856L416.956 160.856L417.351 161.774ZM419.892 148.957L419.398 148.087L419.395 148.089L419.892 148.957ZM428.135 140.939L427.268 140.441L427.264 140.449L428.135 140.939ZM430.958 118.411H431.958V115.648L430.19 117.77L430.958 118.411ZM427.232 120.274L427.502 121.237L427.514 121.233L427.232 120.274ZM420.682 121.685L420.834 122.674L420.847 122.672L420.682 121.685ZM413.511 122.702L413.625 123.695L413.639 123.693L413.511 122.702ZM407.922 123.379L408.051 124.371L408.052 124.371L407.922 123.379ZM398.21 125.581L398.523 126.531L398.53 126.529L398.21 125.581ZM390.983 130.042L390.248 129.363L390.248 129.364L390.983 130.042ZM393.411 148.562L392.841 149.384L392.852 149.391L393.411 148.562ZM404.534 164.033V163.033C399.166 163.033 394.324 162.022 389.991 160.019L389.571 160.927L389.151 161.835C393.777 163.973 398.91 165.033 404.534 165.033V164.033ZM389.571 160.927L389.997 160.022C385.675 157.989 382.261 155.076 379.732 151.282L378.9 151.837L378.067 152.391C380.808 156.502 384.508 159.65 389.145 161.832L389.571 160.927ZM378.9 151.837L379.734 151.286C377.225 147.487 375.947 142.869 375.947 137.382H374.947H373.947C373.947 143.188 375.304 148.206 378.065 152.388L378.9 151.837ZM374.947 137.382H375.947C375.947 132.537 376.902 128.713 378.728 125.835L377.883 125.299L377.039 124.763C374.949 128.058 373.947 132.29 373.947 137.382H374.947ZM377.883 125.299L378.731 125.83C380.595 122.854 383.083 120.526 386.207 118.839L385.732 117.959L385.256 117.079C381.831 118.93 379.086 121.496 377.036 124.768L377.883 125.299ZM385.732 117.959L386.207 118.839C389.393 117.118 392.917 115.831 396.786 114.983L396.572 114.006L396.358 113.03C392.323 113.914 388.62 115.262 385.256 117.079L385.732 117.959ZM396.572 114.006L396.793 114.982C400.753 114.085 404.732 113.375 408.729 112.852L408.599 111.861L408.469 110.869C404.411 111.4 400.372 112.121 396.352 113.031L396.572 114.006ZM408.599 111.861L408.727 112.853C413.993 112.176 418.256 111.669 421.519 111.331L421.416 110.336L421.313 109.342C418.027 109.682 413.745 110.191 408.472 110.869L408.599 111.861ZM421.416 110.336L421.529 111.33C424.875 110.95 427.453 110.311 429.142 109.34L428.643 108.473L428.145 107.606C426.823 108.366 424.582 108.97 421.303 109.343L421.416 110.336ZM428.643 108.473L429.133 109.345C431.064 108.262 431.958 106.372 431.958 103.956H430.958H429.958C429.958 105.831 429.31 106.952 428.154 107.601L428.643 108.473ZM430.958 103.956H431.958V103.504H430.958H429.958V103.956H430.958ZM430.958 103.504H431.958C431.958 97.7482 430.379 93.1379 427.096 89.815L426.385 90.5178L425.674 91.2205C428.489 94.0709 429.958 98.1183 429.958 103.504H430.958ZM426.385 90.5178L427.101 89.8194C423.834 86.4705 418.954 84.8878 412.664 84.8878V85.8878V86.8878C418.646 86.8878 422.914 88.3917 425.669 91.2161L426.385 90.5178ZM412.664 85.8878V84.8878C406.167 84.8878 400.937 86.3095 397.091 89.274L397.702 90.066L398.312 90.8581C401.694 88.2516 406.438 86.8878 412.664 86.8878V85.8878ZM397.702 90.066L397.091 89.274C393.388 92.1284 390.725 95.2206 389.172 98.5661L390.079 98.9872L390.986 99.4083C392.369 96.43 394.788 93.5747 398.312 90.8581L397.702 90.066ZM390.079 98.9872L390.416 98.0455L377.768 93.5284L377.431 94.4702L377.095 95.4119L389.743 99.929L390.079 98.9872ZM377.431 94.4702L378.351 94.8641C380.556 89.7182 383.474 85.7631 387.081 82.9497L386.466 82.1612L385.851 81.3727C381.929 84.4315 378.824 88.6824 376.512 94.0762L377.431 94.4702ZM386.466 82.1612L387.082 82.9489C390.78 80.0558 394.798 78.0489 399.14 76.918L398.887 75.9503L398.635 74.9826C394.018 76.1854 389.754 78.3192 385.849 81.3736L386.466 82.1612ZM398.887 75.9503L399.145 76.9165C403.584 75.7328 407.939 75.1435 412.213 75.1435V74.1435V73.1435C407.753 73.1435 403.225 73.7587 398.63 74.984L398.887 75.9503ZM412.213 74.1435V75.1435C414.92 75.1435 418.056 75.4731 421.627 76.1427L421.811 75.1598L421.996 74.1769C418.339 73.4914 415.076 73.1435 412.213 73.1435V74.1435ZM421.811 75.1598L421.639 76.1448C425.162 76.7622 428.566 78.0524 431.856 80.0262L432.37 79.1687L432.885 78.3112C429.399 76.2196 425.764 74.8373 421.984 74.1748L421.811 75.1598ZM432.37 79.1687L431.86 80.0287C435.107 81.9554 437.832 84.88 440.02 88.8544L440.896 88.3722L441.772 87.8899C439.443 83.6584 436.484 80.4473 432.88 78.3087L432.37 79.1687ZM440.896 88.3722L440.02 88.8544C442.168 92.7563 443.284 98.0657 443.284 104.859H444.284H445.284C445.284 97.876 444.141 92.194 441.772 87.8899L440.896 88.3722ZM444.284 104.859H443.284V162H444.284H445.284V104.859H444.284ZM444.284 162V161H430.958V162V163H444.284V162ZM430.958 162H431.958V150.256H430.958H429.958V162H430.958ZM430.958 150.256V149.256H430.281V150.256V151.256H430.958V150.256ZM430.281 150.256L429.379 149.823C428.539 151.573 427.112 153.498 425.051 155.596L425.764 156.297L426.477 156.998C428.631 154.806 430.215 152.703 431.182 150.688L430.281 150.256ZM425.764 156.297L425.051 155.596C423.054 157.628 420.368 159.388 416.956 160.856L417.351 161.774L417.746 162.693C421.335 161.149 424.258 159.257 426.477 156.998L425.764 156.297ZM417.351 161.774L416.956 160.856C413.613 162.293 409.484 163.033 404.534 163.033V164.033V165.033C409.672 165.033 414.087 164.266 417.746 162.693L417.351 161.774ZM406.566 152.062V153.062C411.965 153.062 416.589 152.002 420.389 149.825L419.892 148.957L419.395 148.089C415.967 150.053 411.707 151.062 406.566 151.062V152.062ZM419.892 148.957L420.385 149.827C424.175 147.678 427.063 144.881 429.007 141.43L428.135 140.939L427.264 140.449C425.519 143.547 422.911 146.096 419.398 148.087L419.892 148.957ZM428.135 140.939L429.002 141.438C430.967 138.018 431.958 134.403 431.958 130.607H430.958H429.958C429.958 134.037 429.067 137.311 427.268 140.441L428.135 140.939ZM430.958 130.607H431.958V118.411H430.958H429.958V130.607H430.958ZM430.958 118.411L430.19 117.77C430.032 117.96 429.717 118.21 429.156 118.49C428.606 118.765 427.875 119.042 426.95 119.314L427.232 120.274L427.514 121.233C428.508 120.941 429.359 120.625 430.051 120.279C430.732 119.938 431.32 119.539 431.727 119.051L430.958 118.411ZM427.232 120.274L426.962 119.311C425.123 119.826 422.976 120.289 420.518 120.699L420.682 121.685L420.847 122.672C423.357 122.253 425.577 121.776 427.502 121.237L427.232 120.274ZM420.682 121.685L420.53 120.697C418.091 121.072 415.709 121.41 413.383 121.71L413.511 122.702L413.639 123.693C415.982 123.391 418.38 123.051 420.834 122.674L420.682 121.685ZM413.511 122.702L413.397 121.708C411.099 121.972 409.229 122.199 407.791 122.388L407.922 123.379L408.052 124.371C409.475 124.184 411.332 123.958 413.625 123.695L413.511 122.702ZM407.922 123.379L407.792 122.388C404.271 122.847 400.969 123.595 397.89 124.634L398.21 125.581L398.53 126.529C401.473 125.535 404.646 124.815 408.051 124.371L407.922 123.379ZM398.21 125.581L397.897 124.631C394.787 125.655 392.225 127.225 390.248 129.363L390.983 130.042L391.717 130.721C393.43 128.868 395.685 127.465 398.522 126.531L398.21 125.581ZM390.983 130.042L390.248 129.364C388.228 131.552 387.272 134.491 387.272 138.06H388.272H389.272C389.272 134.852 390.124 132.447 391.717 130.72L390.983 130.042ZM388.272 138.06H387.272C387.272 142.975 389.113 146.803 392.841 149.384L393.411 148.562L393.98 147.74C390.857 145.578 389.272 142.404 389.272 138.06H388.272ZM393.411 148.562L392.852 149.391C396.519 151.863 401.114 153.062 406.566 153.062V152.062V151.062C401.404 151.062 397.228 149.928 393.969 147.733L393.411 148.562ZM481.93 46.3636H482.93V45.3636H481.93V46.3636ZM481.93 162V163H482.93V162H481.93ZM468.605 162H467.605V163H468.605V162ZM468.605 46.3636V45.3636H467.605V46.3636H468.605ZM481.93 46.3636H480.93V162H481.93H482.93V46.3636H481.93ZM481.93 162V161H468.605V162V163H481.93V162ZM468.605 162H469.605V46.3636H468.605H467.605V162H468.605ZM468.605 46.3636V47.3636H481.93V46.3636V45.3636H468.605V46.3636ZM519.662 46.3636H520.662V45.3636H519.662V46.3636ZM519.662 162V163H520.662V162H519.662ZM506.337 162H505.337V163H506.337V162ZM506.337 46.3636V45.3636H505.337V46.3636H506.337ZM519.662 46.3636H518.662V162H519.662H520.662V46.3636H519.662ZM519.662 162V161H506.337V162V163H519.662V162ZM506.337 162H507.337V46.3636H506.337H505.337V162H506.337ZM506.337 46.3636V47.3636H519.662V46.3636V45.3636H506.337V46.3636ZM605.5 94.696L605.772 95.6582L606.782 95.3726L606.448 94.3781L605.5 94.696ZM593.53 98.0838L592.594 98.4369L592.918 99.2961L593.802 99.046L593.53 98.0838ZM590.198 92.2681L589.397 92.8656L589.403 92.8744L589.41 92.8831L590.198 92.2681ZM584.326 87.5252L584.773 86.6308L584.773 86.6308L584.326 87.5252ZM561.515 89.332L562.082 90.1558L562.084 90.1545L561.515 89.332ZM559.878 106.384L559.255 107.166L559.255 107.166L559.878 106.384ZM571.17 111.183L570.928 112.153L570.932 112.154L571.17 111.183ZM584.044 114.345L583.805 115.316L583.808 115.317L584.044 114.345ZM601.378 122.984L600.664 123.684L600.668 123.688L601.378 122.984ZM602.79 151.159L601.982 150.569L601.979 150.574L602.79 151.159ZM551.239 158.048L551.791 157.214L551.791 157.214L551.239 158.048ZM540.229 141.222L539.986 140.251L539.053 140.485L539.25 141.426L540.229 141.222ZM552.876 138.06L553.845 137.81L553.597 136.849L552.634 137.09L552.876 138.06ZM559.708 148.562L559.137 149.382L559.141 149.385L559.708 148.562ZM587.771 148.11L588.356 148.921L588.357 148.92L587.771 148.11ZM590.142 130.945L589.441 131.659L589.448 131.665L590.142 130.945ZM580.43 126.315L580.202 127.289L580.204 127.289L580.43 126.315ZM565.976 122.928L565.745 123.901L565.748 123.901L565.976 122.928ZM548.472 114.176L547.738 114.855L547.745 114.862L548.472 114.176ZM547.061 86.2266L546.257 85.6317L546.253 85.637L547.061 86.2266ZM558.41 77.3619L558.003 76.4483L558 76.4495L558.41 77.3619ZM594.998 79.7898L594.388 80.5824L594.391 80.5846L594.998 79.7898ZM605.5 94.696L605.228 93.7338L593.257 97.1216L593.53 98.0838L593.802 99.046L605.772 95.6582L605.5 94.696ZM593.53 98.0838L594.465 97.7307C593.673 95.631 592.51 93.6052 590.987 91.6531L590.198 92.2681L589.41 92.8831C590.823 94.6952 591.881 96.5466 592.594 98.4369L593.53 98.0838ZM590.198 92.2681L591 91.6706C589.463 89.6069 587.375 87.9317 584.773 86.6308L584.326 87.5252L583.879 88.4196C586.246 89.6031 588.073 91.0898 589.397 92.8656L590.198 92.2681ZM584.326 87.5252L584.773 86.6308C582.106 85.2973 578.759 84.6619 574.784 84.6619V85.6619V86.6619C578.564 86.6619 581.577 87.2688 583.879 88.4196L584.326 87.5252ZM574.784 85.6619V84.6619C569.321 84.6619 564.687 85.9226 560.946 88.5095L561.515 89.332L562.084 90.1545C565.42 87.848 569.632 86.6619 574.784 86.6619V85.6619ZM561.515 89.332L560.948 88.5082C557.221 91.0735 555.264 94.4296 555.264 98.5355H556.264H557.264C557.264 95.1883 558.808 92.4087 562.082 90.1558L561.515 89.332ZM556.264 98.5355H555.264C555.264 102.126 556.587 105.041 559.255 107.166L559.878 106.384L560.501 105.602C558.35 103.888 557.264 101.57 557.264 98.5355H556.264ZM559.878 106.384L559.255 107.166C561.828 109.217 565.755 110.86 570.928 112.153L571.17 111.183L571.413 110.213C566.347 108.947 562.745 107.39 560.501 105.602L559.878 106.384ZM571.17 111.183L570.932 112.154L583.805 115.316L584.044 114.345L584.282 113.374L571.409 110.212L571.17 111.183ZM584.044 114.345L583.808 115.317C591.461 117.174 597.041 119.989 600.664 123.684L601.378 122.984L602.092 122.284C598.112 118.225 592.136 115.28 584.28 113.373L584.044 114.345ZM601.378 122.984L600.668 123.688C604.261 127.316 606.081 132.002 606.081 137.834H607.081H608.081C608.081 131.545 606.099 126.331 602.089 122.28L601.378 122.984ZM607.081 137.834H606.081C606.081 142.596 604.715 146.83 601.982 150.569L602.79 151.159L603.597 151.749C606.586 147.659 608.081 143.009 608.081 137.834H607.081ZM602.79 151.159L601.979 150.574C599.274 154.325 595.471 157.307 590.526 159.505L590.932 160.419L591.339 161.333C596.557 159.014 600.659 155.823 603.601 151.744L602.79 151.159ZM590.932 160.419L590.526 159.505C585.597 161.696 579.83 162.807 573.203 162.807V163.807V164.807C580.052 164.807 586.105 163.659 591.339 161.333L590.932 160.419ZM573.203 163.807V162.807C564.5 162.807 557.385 160.919 551.791 157.214L551.239 158.048L550.687 158.881C556.687 162.855 564.214 164.807 573.203 164.807V163.807ZM551.239 158.048L551.791 157.214C546.233 153.533 542.702 148.161 541.207 141.017L540.229 141.222L539.25 141.426C540.842 149.038 544.651 154.884 550.687 158.881L551.239 158.048ZM540.229 141.222L540.471 142.192L553.119 139.03L552.876 138.06L552.634 137.09L539.986 140.251L540.229 141.222ZM552.876 138.06L551.908 138.31C553.161 143.165 555.556 146.888 559.137 149.382L559.708 148.562L560.28 147.741C557.16 145.568 555.001 142.29 553.845 137.81L552.876 138.06ZM559.708 148.562L559.141 149.385C562.742 151.866 567.382 153.062 572.977 153.062V152.062V151.062C567.656 151.062 563.45 149.925 560.276 147.738L559.708 148.562ZM572.977 152.062V153.062C579.32 153.062 584.48 151.718 588.356 148.921L587.771 148.11L587.185 147.299C583.758 149.772 579.056 151.062 572.977 151.062V152.062ZM587.771 148.11L588.357 148.92C592.241 146.106 594.304 142.631 594.304 138.511H593.304H592.304C592.304 141.845 590.678 144.769 587.184 147.3L587.771 148.11ZM593.304 138.511H594.304C594.304 135.237 593.146 132.453 590.836 130.225L590.142 130.945L589.448 131.665C591.354 133.503 592.304 135.763 592.304 138.511H593.304ZM590.142 130.945L590.843 130.232C588.553 127.983 585.117 126.379 580.657 125.341L580.43 126.315L580.204 127.289C584.477 128.284 587.515 129.767 589.441 131.659L590.142 130.945ZM580.43 126.315L580.659 125.342L566.204 121.954L565.976 122.928L565.748 123.901L580.202 127.289L580.43 126.315ZM565.976 122.928L566.206 121.955C558.365 120.096 552.741 117.245 549.2 113.49L548.472 114.176L547.745 114.862C551.657 119.011 557.702 121.995 565.745 123.901L565.976 122.928ZM548.472 114.176L549.206 113.497C545.706 109.711 543.939 104.974 543.939 99.2131H542.939H541.939C541.939 105.422 543.86 110.66 547.738 114.855L548.472 114.176ZM542.939 99.2131H543.939C543.939 94.5203 545.252 90.4003 547.868 86.8162L547.061 86.2266L546.253 85.637C543.374 89.5812 541.939 94.1189 541.939 99.2131H542.939ZM547.061 86.2266L547.864 86.8214C550.536 83.2109 554.176 80.3581 558.819 78.2742L558.41 77.3619L558 76.4495C553.082 78.6569 549.156 81.7138 546.257 85.6317L547.061 86.2266ZM558.41 77.3619L558.817 78.2754C563.488 76.195 568.804 75.1435 574.784 75.1435V74.1435V73.1435C568.568 73.1435 562.968 74.2375 558.003 76.4483L558.41 77.3619ZM574.784 74.1435V75.1435C583.23 75.1435 589.726 76.9964 594.388 80.5824L594.998 79.7898L595.607 78.9971C590.482 75.0548 583.502 73.1435 574.784 73.1435V74.1435ZM594.998 79.7898L594.391 80.5846C599.155 84.2214 602.542 89.0203 604.552 95.014L605.5 94.696L606.448 94.3781C604.317 88.0252 600.703 82.8866 595.605 78.9949L594.998 79.7898ZM629.68 193.958L629.888 192.98L629.878 192.978L629.868 192.976L629.68 193.958ZM626.01 192.942L625.049 192.665L624.819 193.464L625.563 193.836L626.01 192.942ZM629.398 181.197L629.646 180.229L628.706 179.988L628.437 180.92L629.398 181.197ZM637.98 182.101L637.89 181.105L637.89 181.105L637.98 182.101ZM644.586 178.77L643.879 178.062L643.873 178.069L643.866 178.076L644.586 178.77ZM649.95 169.227L650.889 169.572L650.889 169.572L649.95 169.227ZM652.435 162.452L653.374 162.796L653.5 162.451L653.373 162.106L652.435 162.452ZM620.364 75.2727V74.2727H618.93L619.425 75.618L620.364 75.2727ZM634.818 75.2727L635.763 74.9454L635.53 74.2727H634.818V75.2727ZM658.759 144.384L657.814 144.711L658.047 145.384H658.759V144.384ZM659.662 144.384V145.384H660.374L660.607 144.711L659.662 144.384ZM683.602 75.2727V74.2727H682.891L682.658 74.9454L683.602 75.2727ZM698.057 75.2727L698.995 75.6201L699.494 74.2727H698.057V75.2727ZM661.243 174.648L660.305 174.3L660.305 174.301L661.243 174.648ZM655.089 185.771L654.32 185.131L654.316 185.136L655.089 185.771ZM646.563 192.377L646.159 191.462L646.155 191.464L646.563 192.377ZM635.722 194.523V193.523C633.517 193.523 631.575 193.339 629.888 192.98L629.68 193.958L629.472 194.936C631.324 195.33 633.41 195.523 635.722 195.523V194.523ZM629.68 193.958L629.868 192.976C628.1 192.637 626.999 192.318 626.457 192.047L626.01 192.942L625.563 193.836C626.376 194.243 627.722 194.601 629.492 194.94L629.68 193.958ZM626.01 192.942L626.971 193.219L630.359 181.475L629.398 181.197L628.437 180.92L625.049 192.665L626.01 192.942ZM629.398 181.197L629.15 182.166C632.463 183.014 635.442 183.336 638.071 183.097L637.98 182.101L637.89 181.105C635.55 181.318 632.808 181.038 629.646 180.229L629.398 181.197ZM637.98 182.101L638.071 183.097C640.822 182.847 643.24 181.611 645.307 179.463L644.586 178.77L643.866 178.076C642.093 179.918 640.108 180.903 637.89 181.105L637.98 182.101ZM644.586 178.77L645.294 179.477C647.401 177.369 649.251 174.03 650.889 169.572L649.95 169.227L649.012 168.882C647.413 173.232 645.687 176.255 643.879 178.062L644.586 178.77ZM649.95 169.227L650.889 169.572L653.374 162.796L652.435 162.452L651.496 162.107L649.012 168.883L649.95 169.227ZM652.435 162.452L653.373 162.106L621.302 74.9275L620.364 75.2727L619.425 75.618L651.496 162.797L652.435 162.452ZM620.364 75.2727V76.2727H634.818V75.2727V74.2727H620.364V75.2727ZM634.818 75.2727L633.873 75.6L657.814 144.711L658.759 144.384L659.704 144.056L635.763 74.9454L634.818 75.2727ZM658.759 144.384V145.384H659.662V144.384V143.384H658.759V144.384ZM659.662 144.384L660.607 144.711L684.547 75.6L683.602 75.2727L682.658 74.9454L658.717 144.056L659.662 144.384ZM683.602 75.2727V76.2727H698.057V75.2727V74.2727H683.602V75.2727ZM698.057 75.2727L697.119 74.9253L660.305 174.3L661.243 174.648L662.181 174.995L698.995 75.6201L698.057 75.2727ZM661.243 174.648L660.305 174.301C658.679 178.699 656.679 182.301 654.32 185.131L655.089 185.771L655.857 186.411C658.392 183.369 660.495 179.555 662.181 174.995L661.243 174.648ZM655.089 185.771L654.316 185.136C651.96 188 649.241 190.101 646.159 191.462L646.563 192.377L646.967 193.292C650.359 191.793 653.324 189.49 655.861 186.406L655.089 185.771ZM646.563 192.377L646.155 191.464C643.101 192.829 639.63 193.523 635.722 193.523V194.523V195.523C639.869 195.523 643.625 194.786 646.971 193.29L646.563 192.377Z" fill="#333333" mask="url(#path-3-outside-1_260_14)"/>
</g>
<defs>
<filter id="filter0_f_260_14" x="284.531" y="44.7638" width="415.126" height="151.359" filterUnits="userSpaceOnUse" color-interpolation-filters="sRGB">
<feFlood flood-opacity="0" result="BackgroundImageFix"/>
<feBlend mode="normal" in="SourceGraphic" in2="BackgroundImageFix" result="shape"/>
<feGaussianBlur stdDeviation="0.8" result="effect1_foregroundBlur_260_14"/>
</filter>
<filter id="filter1_f_260_14" x="283.531" y="43.7638" width="417.563" height="153.359" filterUnits="userSpaceOnUse" color-interpolation-filters="sRGB">
<feFlood flood-opacity="0" result="BackgroundImageFix"/>
<feBlend mode="normal" in="SourceGraphic" in2="BackgroundImageFix" result="shape"/>
<feGaussianBlur stdDeviation="0.8" result="effect1_foregroundBlur_260_14"/>
</filter>
<linearGradient id="paint0_linear_260_14" x1="50.1492" y1="3.50291e-06" x2="168.851" y2="219" gradientUnits="userSpaceOnUse">
<stop offset="0.281196" stop-color="#333333"/>
<stop offset="0.5" stop-color="#545454"/>
<stop offset="0.802807" stop-color="#333333"/>
</linearGradient>
<linearGradient id="paint1_linear_260_14" x1="559.602" y1="196.737" x2="478.318" y2="7.82113" gradientUnits="userSpaceOnUse">
<stop offset="0.099764" stop-color="#999999" stop-opacity="0.46"/>
<stop offset="0.502894" stop-color="white"/>
<stop offset="0.85826" stop-color="#999999" stop-opacity="0.46"/>
</linearGradient>
</defs>
</svg>
